HIERARCHY
ROOT Hips
{
	OFFSET 0.000000 0.000000 0.000000
	CHANNELS 6 Xposition Yposition Zposition Zrotation Yrotation Xrotation 
	JOINT LHipJoint
	{
		OFFSET 0.000000 0.000000 0.000000
		CHANNELS 3 Zrotation Yrotation Xrotation
		JOINT LeftUpLeg
		{
			OFFSET 1.363060 -1.794630 0.839290
			CHANNELS 3 Zrotation Yrotation Xrotation
			JOINT LeftLeg
			{
				OFFSET 2.448110 -6.726130 0.000000
				CHANNELS 3 Zrotation Yrotation Xrotation
				JOINT LeftFoot
				{
					OFFSET 2.562200 -7.039590 0.000000
					CHANNELS 3 Zrotation Yrotation Xrotation
					JOINT LeftToeBase
					{
						OFFSET 0.157640 -0.433110 2.322550
						CHANNELS 3 Zrotation Yrotation Xrotation
						End Site
						{
							OFFSET 0.000000 0.000000 0.000000
						}
					}
				}
			}
		}
	}
	JOINT RHipJoint
	{
		OFFSET 0.000000 0.000000 0.000000
		CHANNELS 3 Zrotation Yrotation Xrotation
		JOINT RightUpLeg
		{
			OFFSET -1.305520 -1.794630 0.839290
			CHANNELS 3 Zrotation Yrotation Xrotation
			JOINT RightLeg
			{
				OFFSET -2.542530 -6.985550 0.000000
				CHANNELS 3 Zrotation Yrotation Xrotation
				JOINT RightFoot
				{
					OFFSET -2.568260 -7.056230 0.000000
					CHANNELS 3 Zrotation Yrotation Xrotation
					JOINT RightToeBase
					{
						OFFSET -0.164730 -0.452590 2.363150
						CHANNELS 3 Zrotation Yrotation Xrotation
						End Site
						{
							OFFSET 0.000000 0.000000 0.000000
						}
					}
				}
			}
		}
	}
	JOINT LowerBack
	{
		OFFSET 0.000000 0.000000 0.000000
		CHANNELS 3 Zrotation Yrotation Xrotation
		JOINT Spine
		{
			OFFSET 0.028270 2.035590 -0.193380
			CHANNELS 3 Zrotation Yrotation Xrotation
			JOINT Spine1
			{
				OFFSET 0.056720 2.048850 -0.042750
				CHANNELS 3 Zrotation Yrotation Xrotation
				JOINT Neck
				{
					OFFSET 0.000000 0.000000 0.000000
					CHANNELS 3 Zrotation Yrotation Xrotation
					JOINT Neck1
					{
						OFFSET -0.054170 1.746240 0.172020
						CHANNELS 3 Zrotation Yrotation Xrotation
						JOINT Head
						{
							OFFSET 0.104070 1.761360 -0.123970
							CHANNELS 3 Zrotation Yrotation Xrotation
							End Site
							{
								OFFSET 0.000000 0.000000 0.000000
							}
						}
					}
				}
				JOINT LeftShoulder
				{
					OFFSET 0.000000 0.000000 0.000000
					CHANNELS 3 Zrotation Yrotation Xrotation
					JOINT LeftArm
					{
						OFFSET 3.362410 1.200890 -0.311210
						CHANNELS 3 Zrotation Yrotation Xrotation
						JOINT LeftForeArm
						{
							OFFSET 4.983000 -0.000000 -0.000000
							CHANNELS 3 Zrotation Yrotation Xrotation
							JOINT LeftHand
							{
								OFFSET 3.483560 -0.000000 -0.000000
								CHANNELS 3 Zrotation Yrotation Xrotation
								JOINT LeftFingerBase
								{
									OFFSET 0.000000 0.000000 0.000000
									CHANNELS 3 Zrotation Yrotation Xrotation
									JOINT LeftHandIndex1
									{
										OFFSET 0.715260 -0.000000 -0.000000
										CHANNELS 3 Zrotation Yrotation Xrotation
										End Site
										{
											OFFSET 0.000000 0.000000 0.000000
										}
									}
								}
								JOINT LThumb
								{
									OFFSET 0.000000 0.000000 0.000000
									CHANNELS 3 Zrotation Yrotation Xrotation
									End Site
									{
										OFFSET 0.000000 0.000000 0.000000
									}
								}
							}
						}
					}
				}
				JOINT RightShoulder
				{
					OFFSET 0.000000 0.000000 0.000000
					CHANNELS 3 Zrotation Yrotation Xrotation
					JOINT RightArm
					{
						OFFSET -3.136600 1.374050 -0.404650
						CHANNELS 3 Zrotation Yrotation Xrotation
						JOINT RightForeArm
						{
							OFFSET -5.241900 -0.000000 -0.000000
							CHANNELS 3 Zrotation Yrotation Xrotation
							JOINT RightHand
							{
								OFFSET -3.444170 -0.000000 -0.000000
								CHANNELS 3 Zrotation Yrotation Xrotation
								JOINT RightFingerBase
								{
									OFFSET 0.000000 0.000000 0.000000
									CHANNELS 3 Zrotation Yrotation Xrotation
									JOINT RightHandIndex1
									{
										OFFSET -0.622530 -0.000000 -0.000000
										CHANNELS 3 Zrotation Yrotation Xrotation
										End Site
										{
											OFFSET 0.000000 0.000000 0.000000
										}
									}
								}
								JOINT RThumb
								{
									OFFSET 0.000000 0.000000 0.000000
									CHANNELS 3 Zrotation Yrotation Xrotation
									End Site
									{
										OFFSET 0.000000 0.000000 0.000000
									}
								}
							}
						}
					}
				}
			}
		}
	}
}
MOTION
Frames: 10
Frame Time: 0.008333
0.958090 17.934183 8.422184 -4.738403 -6.621183 3.022555 -3.438115 3.069952 1.649766 -5.992989 -11.238883 -27.125596 -2.216082 5.192921 15.646929 2.111514 -0.263246 22.861505 0.208500 -2.939900 -8.111500 3.654298 -5.216524 7.229287 21.902153 8.257306 5.313605 -1.908845 -7.954759 30.262007 0.681604 -3.798990 8.466447 -0.240900 3.158500 -8.720500 5.242870 3.263459 4.285176 2.252571 4.809936 1.511490 -2.212861 2.423687 -5.660257 -5.717745 -4.149661 -15.162580 3.998261 -4.573144 16.044976 0.006000 -1.902800 9.072900 -7.411978 2.760588 -1.483867 -81.575207 13.012033 17.998763 9.182067 -16.946251 -1.497358 -1.089190 -1.690456 -0.866016 26.661237 26.568368 13.957300 -7.125000 0.000000 0.000000 -3.248500 61.112500 -1.275700 11.571583 -1.198827 -2.293681 71.007427 6.840259 18.977417 -13.563000 26.600777 -4.185701 1.139447 -0.556306 -0.019810 -17.957979 22.111021 -7.560200 7.125000 0.000000 0.000000 6.157500 -6.379000 5.467700 
0.977676 17.939358 8.659753 -4.207495 -6.220504 2.822021 -3.524887 3.112171 1.673140 -6.605236 -11.550554 -26.872466 -2.152217 5.340075 16.198538 2.093992 0.146473 24.754957 0.003300 -0.368400 -1.012200 3.602794 -5.221784 7.210326 21.311145 7.833650 4.819271 -2.320556 -8.467242 31.910100 0.690087 -4.000517 10.808163 -0.174700 2.692400 -7.423600 4.681413 3.151376 4.132548 2.146355 4.606881 1.439693 -1.972883 2.324152 -5.711969 -5.788871 -4.122408 -14.919283 4.142175 -4.566178 16.032816 0.070400 -1.890000 9.027300 -7.429765 2.767412 -1.477752 -81.637401 13.145786 17.574143 8.824955 -16.404409 -1.380936 -1.205360 -1.658703 -0.846525 28.717486 25.734397 14.788200 -7.125000 0.000000 0.000000 -0.301500 60.723200 -0.115500 11.592249 -1.231410 -2.304148 71.207927 6.356384 18.127869 -13.246318 26.182338 -4.016948 1.173523 -0.623912 0.668538 -18.572127 22.883798 -8.101400 7.125000 0.000000 0.000000 5.815000 -5.438900 5.265500 
0.999901 17.941591 8.898642 -3.826002 -5.604133 2.700040 -3.525604 3.156899 1.786861 -7.589558 -11.274301 -26.706568 -2.071148 5.573866 17.125816 2.234219 -0.821641 24.333932 0.035900 -1.223300 -3.363400 3.543028 -5.189847 7.123999 20.909755 7.149028 3.983591 -2.811479 -9.018012 33.724416 0.735618 -4.458887 13.494437 -0.130000 2.323900 -6.401700 4.405264 2.964059 4.030845 2.022046 4.339353 1.263871 -1.913549 2.177402 -5.888835 -5.809651 -4.111666 -14.591867 4.233423 -4.597924 16.148858 0.107400 -1.893100 9.011900 -7.429595 2.775202 -1.469461 -81.561384 13.418230 17.119810 8.572268 -15.968853 -1.304242 -1.223945 -1.436718 -0.834804 28.476402 21.264064 12.377700 -7.125000 0.000000 0.000000 0.821200 55.590100 0.213400 11.609510 -1.270468 -2.325263 71.443115 5.682210 17.388486 -12.906279 25.735993 -3.836508 1.214048 -0.687051 1.410605 -19.340608 23.549985 -8.696100 7.125000 0.000000 0.000000 5.371900 -4.584700 4.947600 
1.021314 17.941185 9.130934 -3.706266 -4.685707 2.602454 -3.474332 3.198145 1.871260 -8.260546 -11.286208 -26.559807 -1.944058 5.844917 18.123487 2.312039 -1.776124 23.082888 0.096300 -2.001100 -5.508700 3.479469 -5.132319 7.012198 20.868216 6.194917 2.969125 -3.389058 -9.586720 35.686292 0.806939 -5.151266 16.180370 -0.085900 1.890900 -5.204300 4.392031 2.668568 3.902848 1.971202 3.949904 1.099427 -1.901031 1.969398 -6.019367 -5.650468 -4.106194 -14.288128 4.096517 -4.650539 16.187073 0.030300 -1.919500 8.966800 -7.419677 2.773683 -1.473299 -81.449119 13.931045 16.863779 8.576199 -15.973036 -1.308589 -1.168457 -1.402161 -0.706614 27.293128 20.610059 11.455500 -7.125000 0.000000 0.000000 -0.361600 54.588900 -0.085200 11.624697 -1.317203 -2.347979 71.621531 5.134115 16.832961 -12.636143 25.379929 -3.704426 1.236551 -0.690415 1.769764 -19.678010 23.362246 -8.794300 7.125000 0.000000 0.000000 5.128300 -4.728600 4.707400 
1.049424 17.957828 9.356122 -3.579096 -5.045192 2.284746 -3.383262 3.264722 2.024354 -8.792842 -10.724229 -26.367729 -1.778796 6.208736 19.295101 2.409298 -2.695398 21.674104 0.007900 -0.572800 -1.573900 3.364967 -5.116496 6.890415 20.484484 6.054229 2.314155 -3.980671 -10.189436 37.702664 0.697850 -5.577644 19.278490 -0.077100 1.790900 -4.928000 4.303536 2.765488 4.201666 1.960940 4.093781 1.044313 -1.902140 2.024513 -6.256629 -5.515054 -4.075148 -14.265257 3.907381 -4.618824 16.406012 -0.051000 -1.907600 9.036300 -7.424728 2.775875 -1.469626 -81.435890 14.146454 16.190014 8.395877 -15.684157 -1.253231 -1.148725 -1.427901 -0.042281 26.619253 21.398666 11.515500 -7.125000 0.000000 0.000000 -1.339100 55.340600 -0.340000 11.638233 -1.344222 -2.364116 71.753835 4.722043 16.225158 -12.481553 25.178698 -3.645731 1.231359 -0.642140 1.977844 -19.488213 22.424170 -8.372400 7.125000 0.000000 0.000000 5.157200 -5.781500 4.630700 
1.076723 17.971325 9.571467 -3.612059 -5.184201 2.011292 -3.324255 3.286825 2.151432 -9.082737 -10.250416 -26.253658 -1.669395 6.501237 20.276279 2.676050 -3.690873 22.629076 0.183700 2.760300 7.612200 3.279993 -5.056572 6.736755 20.402608 5.932968 1.490922 -4.651413 -10.798472 39.822388 0.561307 -6.186044 22.492385 -0.039600 1.284100 -3.530800 4.373825 2.794226 4.409864 2.031112 4.155086 1.101941 -1.877654 2.044719 -6.299039 -5.583602 -4.077376 -14.443176 3.920585 -4.583431 16.549201 -0.029900 -1.890200 9.121700 -7.438229 2.783606 -1.455101 -81.519464 13.899563 15.541485 8.098640 -15.180526 -1.164237 -1.182080 -1.362545 0.355094 26.830187 20.278732 11.070900 -7.125000 0.000000 0.000000 -0.783100 54.113400 -0.175400 11.637779 -1.350170 -2.376804 71.887209 4.371936 15.462164 -12.519829 25.241150 -3.681961 1.217746 -0.601432 1.974478 -19.174226 21.799282 -8.008200 7.125000 0.000000 0.000000 5.305900 -6.516800 4.690000 
1.099556 17.977921 9.775953 -3.670914 -5.220397 1.775071 -3.262806 3.329593 2.310561 -9.494754 -9.685343 -26.043841 -1.560364 6.743270 21.162427 2.908038 -4.910654 22.259474 0.234500 3.116900 8.604400 3.199995 -4.982932 6.545097 20.455197 5.842981 0.453005 -5.425698 -11.440606 42.100165 0.432595 -7.101508 25.573104 -0.003100 -0.360900 0.991500 4.511621 2.812682 4.818396 2.041568 4.223663 1.059703 -1.972556 2.052240 -6.560446 -5.689770 -4.143743 -14.440453 4.099588 -4.671388 16.555195 0.042100 -1.919700 9.131700 -7.438569 2.789027 -1.447536 -81.471073 13.881506 15.222781 7.945589 -14.928931 -1.120262 -1.253205 -1.252600 0.401774 27.953524 18.107164 10.470800 -7.125000 0.000000 0.000000 0.941900 51.846000 0.158800 11.631389 -1.367486 -2.400102 72.104425 3.815023 14.983067 -12.583610 25.338994 -3.716772 1.235545 -0.558283 1.754278 -19.441802 21.269923 -7.931800 7.125000 0.000000 0.000000 5.080400 -7.065400 4.434800 
1.120258 17.995782 9.987136 -3.708874 -5.338060 1.505969 -3.230425 3.430670 2.504763 -9.917233 -9.122993 -25.537044 -1.424575 6.919581 21.813289 2.870946 -5.181739 20.662679 0.071000 1.719600 4.731400 3.106959 -4.928705 6.342465 20.551930 5.919080 -0.527648 -6.290181 -12.101011 44.512963 0.354074 -8.309181 28.104354 -0.211900 -2.963500 8.177200 4.565563 2.811965 5.259312 2.061683 4.264718 0.996722 -2.005246 2.041756 -6.884459 -5.769526 -4.201698 -14.495582 4.270325 -4.746334 16.604845 0.107500 -1.940000 9.168700 -7.430198 2.795591 -1.446012 -81.499398 14.077284 14.779725 7.954659 -14.935634 -1.124903 -1.297696 -1.132996 0.458647 28.648901 15.759403 9.480400 -7.125000 0.000000 0.000000 2.060200 49.237300 0.215400 11.620129 -1.389901 -2.429814 72.308907 3.149459 14.796689 -12.682710 25.495673 -3.770341 1.246918 -0.509473 1.487117 -19.591578 20.703844 -7.785300 7.125000 0.000000 0.000000 4.930500 -7.675900 4.243900 
1.141976 18.021660 10.189390 -3.634754 -5.432973 1.379173 -3.221300 3.515466 2.662911 -10.282476 -8.859729 -25.055291 -1.323451 7.008297 22.221178 2.821191 -5.320691 19.195047 0.022600 0.971100 2.669300 3.015286 -4.861755 6.123834 20.532747 6.100690 -1.769292 -7.233888 -12.765703 47.012298 0.265760 -9.755756 30.470208 -0.659400 -5.193600 14.461400 4.506262 2.763858 5.444600 2.060996 4.214054 1.051878 -1.963039 2.001352 -6.920630 -5.757896 -4.176962 -14.802839 4.359247 -4.691148 16.589799 0.140500 -1.903500 9.221600 -7.431603 2.789406 -1.451538 -81.650034 13.971245 14.199065 8.154253 -15.287195 -1.178521 -1.361536 -1.206355 0.691250 30.076710 17.342755 10.973200 -7.125000 0.000000 0.000000 3.359600 51.360000 0.526800 11.609581 -1.398611 -2.431811 72.522880 2.965583 14.559125 -12.712669 25.534315 -3.798236 1.230817 -0.440122 1.451553 -19.333431 19.611797 -7.276500 7.125000 0.000000 0.000000 5.018800 -8.917900 4.196600 
1.164606 18.044189 10.390628 -3.060294 -5.480225 1.223176 -3.285401 3.588553 2.811616 -11.117444 -8.757422 -24.495735 -1.288449 6.986544 22.445323 2.778017 -5.378446 19.388531 0.055800 1.523900 4.191700 2.914444 -4.816873 5.929151 19.908659 6.124266 -3.186384 -8.207714 -13.431717 49.596688 0.100183 -11.057801 32.575133 -1.019700 -6.424200 18.020300 3.942840 2.721039 5.487439 1.934411 4.101293 1.159009 -1.759557 1.950852 -6.841951 -5.716961 -4.057877 -14.772398 4.370238 -4.545709 16.282798 0.149300 -1.842700 9.102700 -7.443618 2.755972 -1.449311 -81.742377 13.672975 13.637517 8.295506 -15.552906 -1.216051 -1.407420 -1.368281 0.942874 31.214620 20.689781 13.466100 -7.125000 0.000000 0.000000 4.120700 55.537200 1.067000 11.621372 -1.422436 -2.419333 72.674955 3.095220 14.091871 -12.475516 25.191394 -3.685490 1.218808 -0.458950 1.653240 -18.994589 19.676307 -7.171700 7.125000 0.000000 0.000000 5.249300 -8.880900 4.395000 
